<svg width="9" height="9" viewBox="0 0 9 9" fill="none" xmlns="http://www.w3.org/2000/svg">
<path d="M4.06099 0.297018L2.97214 2.50472L0.535991 2.85989C0.0991189 2.92325 -0.0759636 3.46184 0.240852 3.77032L2.00335 5.4878L1.58649 7.91394C1.51145 8.35248 1.97334 8.68097 2.36018 8.47587L4.53954 7.33033L6.7189 8.47587C7.10575 8.6793 7.56764 8.35248 7.4926 7.91394L7.07574 5.4878L8.83824 3.77032C9.15505 3.46184 8.97997 2.92325 8.5431 2.85989L6.10695 2.50472L5.0181 0.297018C4.92045 0.100043 4.73005 0.000410124 4.53954 1.26695e-06C4.34945 -0.000406695 4.15926 0.0979756 4.06099 0.297018Z" fill="#B4B4B4"/>
</svg>
